<svg width="12" height="12" viewBox="0 0 12 12" fill="none" xmlns="http://www.w3.org/2000/svg">
<path d="M5.01556 8.32982C4.95388 8.32994 4.89279 8.31789 4.83579 8.29434C4.77879 8.2708 4.727 8.23624 4.68339 8.19263L2.69039 6.19916C2.64549 6.15585 2.60966 6.10403 2.585 6.04673C2.56033 5.98943 2.54733 5.92778 2.54674 5.8654C2.54616 5.80302 2.558 5.74115 2.58158 5.68339C2.60517 5.62563 2.64001 5.57315 2.6841 5.52901C2.72818 5.48486 2.78061 5.44994 2.83833 5.42628C2.89605 5.40261 2.95791 5.39068 3.02029 5.39118C3.08268 5.39168 3.14434 5.40459 3.20167 5.42918C3.25901 5.45376 3.31088 5.48951 3.35425 5.53435L5.01509 7.19519L8.00553 4.20569C8.09362 4.11753 8.21313 4.06798 8.33776 4.06793C8.46239 4.06789 8.58194 4.11736 8.67009 4.20545C8.75825 4.29355 8.80781 4.41306 8.80785 4.53769C8.80789 4.66232 8.75843 4.78186 8.67033 4.87002L5.34772 8.19263C5.30411 8.23624 5.25232 8.2708 5.19532 8.29434C5.13832 8.31789 5.07723 8.32994 5.01556 8.32982Z" fill="#2FAB73"/>
</svg>
