<svg width="15" height="15" viewBox="0 0 15 15" fill="none" xmlns="http://www.w3.org/2000/svg">
<path d="M11.1582 6.46004H4.193L6.32484 3.89949C6.42452 3.77955 6.47248 3.62493 6.45816 3.46964C6.44385 3.31435 6.36842 3.1711 6.24849 3.07142C6.12856 2.97173 5.97394 2.92378 5.81865 2.93809C5.66335 2.95241 5.52011 3.02783 5.42042 3.14776L2.48401 6.67146C2.46426 6.69949 2.44659 6.72893 2.43116 6.75955C2.43116 6.78891 2.43116 6.80653 2.39005 6.8359C2.36343 6.90323 2.34949 6.97491 2.34894 7.04732C2.34949 7.11972 2.36343 7.1914 2.39005 7.25874C2.39005 7.2881 2.39005 7.30572 2.43116 7.33509C2.44659 7.36571 2.46426 7.39515 2.48401 7.42318L5.42042 10.9469C5.47564 11.0132 5.54479 11.0665 5.62295 11.103C5.7011 11.1396 5.78635 11.1584 5.87263 11.1583C6.00985 11.1586 6.14283 11.1108 6.24849 11.0232C6.30796 10.9739 6.35712 10.9134 6.39315 10.845C6.42918 10.7767 6.45137 10.7019 6.45847 10.625C6.46556 10.5481 6.45741 10.4705 6.43448 10.3968C6.41155 10.323 6.37429 10.2545 6.32484 10.1952L4.193 7.6346H11.1582C11.3139 7.6346 11.4633 7.57273 11.5734 7.46259C11.6836 7.35245 11.7455 7.20307 11.7455 7.04732C11.7455 6.89156 11.6836 6.74218 11.5734 6.63205C11.4633 6.52191 11.3139 6.46004 11.1582 6.46004Z" fill="#F53838"/>
</svg>
